<?xml version="1.0" encoding="utf-8" standalone="no"?>
<!DOCTYPE svg PUBLIC "-//W3C//DTD SVG 1.1//EN"
  "http://www.w3.org/Graphics/SVG/1.1/DTD/svg11.dtd">
<!-- Created with matplotlib (http://matplotlib.org/) -->
<svg height="680pt" version="1.1" viewBox="0 0 967 680" width="967pt" xmlns="http://www.w3.org/2000/svg" xmlns:xlink="http://www.w3.org/1999/xlink">
 <defs>
  <style type="text/css">
*{stroke-linecap:butt;stroke-linejoin:round;stroke-miterlimit:100000;}
  </style>
 </defs>
 <g id="figure_1">
  <g id="patch_1">
   <path d="M 0 680.631437 
L 967.653125 680.631437 
L 967.653125 0 
L 0 0 
z
" style="fill:#ffffff;"/>
  </g>
  <g id="axes_1">
   <g id="patch_2">
    <path d="M 31.103125 627.94175 
L 951.803125 627.94175 
L 951.803125 23.14175 
L 31.103125 23.14175 
z
" style="fill:#e5e5e5;"/>
   </g>
   <g id="matplotlib.axis_1">
    <g id="xtick_1">
     <g id="line2d_1">
      <path clip-path="url(#p1db0f1733e)" d="M 399.383125 627.94175 
L 399.383125 23.14175 
" style="fill:none;stroke:#ffffff;stroke-linecap:square;stroke-width:0.5;"/>
     </g>
     <g id="line2d_2">
      <defs>
       <path d="M 0 0 
L 0 4 
" id="m8fdd304402" style="stroke:#555555;stroke-width:0.5;"/>
      </defs>
      <g>
       <use style="fill:#555555;stroke:#555555;stroke-width:0.5;" x="399.383125" xlink:href="#m8fdd304402" y="627.94175"/>
      </g>
     </g>
     <g id="line2d_3">
      <defs>
       <path d="M 0 0 
L 0 -4 
" id="mf5c0c4f1dd" style="stroke:#555555;stroke-width:0.5;"/>
      </defs>
      <g>
       <use style="fill:#555555;stroke:#555555;stroke-width:0.5;" x="399.383125" xlink:href="#mf5c0c4f1dd" y="23.14175"/>
      </g>
     </g>
     <g id="text_1">
      <!-- Jan -->
      <defs>
       <path d="M 54.890625 33.015625 
L 54.890625 0 
L 45.90625 0 
L 45.90625 32.71875 
Q 45.90625 40.484375 42.875 44.328125 
Q 39.84375 48.1875 33.796875 48.1875 
Q 26.515625 48.1875 22.3125 43.546875 
Q 18.109375 38.921875 18.109375 30.90625 
L 18.109375 0 
L 9.078125 0 
L 9.078125 54.6875 
L 18.109375 54.6875 
L 18.109375 46.1875 
Q 21.34375 51.125 25.703125 53.5625 
Q 30.078125 56 35.796875 56 
Q 45.21875 56 50.046875 50.171875 
Q 54.890625 44.34375 54.890625 33.015625 
" id="BitstreamVeraSans-Roman-6e"/>
       <path d="M 34.28125 27.484375 
Q 23.390625 27.484375 19.1875 25 
Q 14.984375 22.515625 14.984375 16.5 
Q 14.984375 11.71875 18.140625 8.90625 
Q 21.296875 6.109375 26.703125 6.109375 
Q 34.1875 6.109375 38.703125 11.40625 
Q 43.21875 16.703125 43.21875 25.484375 
L 43.21875 27.484375 
z
M 52.203125 31.203125 
L 52.203125 0 
L 43.21875 0 
L 43.21875 8.296875 
Q 40.140625 3.328125 35.546875 0.953125 
Q 30.953125 -1.421875 24.3125 -1.421875 
Q 15.921875 -1.421875 10.953125 3.296875 
Q 6 8.015625 6 15.921875 
Q 6 25.140625 12.171875 29.828125 
Q 18.359375 34.515625 30.609375 34.515625 
L 43.21875 34.515625 
L 43.21875 35.40625 
Q 43.21875 41.609375 39.140625 45 
Q 35.0625 48.390625 27.6875 48.390625 
Q 23 48.390625 18.546875 47.265625 
Q 14.109375 46.140625 10.015625 43.890625 
L 10.015625 52.203125 
Q 14.9375 54.109375 19.578125 55.046875 
Q 24.21875 56 28.609375 56 
Q 40.484375 56 46.34375 49.84375 
Q 52.203125 43.703125 52.203125 31.203125 
" id="BitstreamVeraSans-Roman-61"/>
       <path d="M 9.8125 72.90625 
L 19.671875 72.90625 
L 19.671875 5.078125 
Q 19.671875 -8.109375 14.671875 -14.0625 
Q 9.671875 -20.015625 -1.421875 -20.015625 
L -5.171875 -20.015625 
L -5.171875 -11.71875 
L -2.09375 -11.71875 
Q 4.4375 -11.71875 7.125 -8.046875 
Q 9.8125 -4.390625 9.8125 5.078125 
z
" id="BitstreamVeraSans-Roman-4a"/>
      </defs>
      <g style="fill:#555555;" transform="translate(391.6753125 643.5401875)scale(0.1 -0.1)">
       <use xlink:href="#BitstreamVeraSans-Roman-4a"/>
       <use x="29.4921875" xlink:href="#BitstreamVeraSans-Roman-61"/>
       <use x="90.771484375" xlink:href="#BitstreamVeraSans-Roman-6e"/>
      </g>
      <!-- 2016 -->
      <defs>
       <path d="M 19.1875 8.296875 
L 53.609375 8.296875 
L 53.609375 0 
L 7.328125 0 
L 7.328125 8.296875 
Q 12.9375 14.109375 22.625 23.890625 
Q 32.328125 33.6875 34.8125 36.53125 
Q 39.546875 41.84375 41.421875 45.53125 
Q 43.3125 49.21875 43.3125 52.78125 
Q 43.3125 58.59375 39.234375 62.25 
Q 35.15625 65.921875 28.609375 65.921875 
Q 23.96875 65.921875 18.8125 64.3125 
Q 13.671875 62.703125 7.8125 59.421875 
L 7.8125 69.390625 
Q 13.765625 71.78125 18.9375 73 
Q 24.125 74.21875 28.421875 74.21875 
Q 39.75 74.21875 46.484375 68.546875 
Q 53.21875 62.890625 53.21875 53.421875 
Q 53.21875 48.921875 51.53125 44.890625 
Q 49.859375 40.875 45.40625 35.40625 
Q 44.1875 33.984375 37.640625 27.21875 
Q 31.109375 20.453125 19.1875 8.296875 
" id="BitstreamVeraSans-Roman-32"/>
       <path d="M 31.78125 66.40625 
Q 24.171875 66.40625 20.328125 58.90625 
Q 16.5 51.421875 16.5 36.375 
Q 16.5 21.390625 20.328125 13.890625 
Q 24.171875 6.390625 31.78125 6.390625 
Q 39.453125 6.390625 43.28125 13.890625 
Q 47.125 21.390625 47.125 36.375 
Q 47.125 51.421875 43.28125 58.90625 
Q 39.453125 66.40625 31.78125 66.40625 
M 31.78125 74.21875 
Q 44.046875 74.21875 50.515625 64.515625 
Q 56.984375 54.828125 56.984375 36.375 
Q 56.984375 17.96875 50.515625 8.265625 
Q 44.046875 -1.421875 31.78125 -1.421875 
Q 19.53125 -1.421875 13.0625 8.265625 
Q 6.59375 17.96875 6.59375 36.375 
Q 6.59375 54.828125 13.0625 64.515625 
Q 19.53125 74.21875 31.78125 74.21875 
" id="BitstreamVeraSans-Roman-30"/>
       <path d="M 12.40625 8.296875 
L 28.515625 8.296875 
L 28.515625 63.921875 
L 10.984375 60.40625 
L 10.984375 69.390625 
L 28.421875 72.90625 
L 38.28125 72.90625 
L 38.28125 8.296875 
L 54.390625 8.296875 
L 54.390625 0 
L 12.40625 0 
z
" id="BitstreamVeraSans-Roman-31"/>
       <path d="M 33.015625 40.375 
Q 26.375 40.375 22.484375 35.828125 
Q 18.609375 31.296875 18.609375 23.390625 
Q 18.609375 15.53125 22.484375 10.953125 
Q 26.375 6.390625 33.015625 6.390625 
Q 39.65625 6.390625 43.53125 10.953125 
Q 47.40625 15.53125 47.40625 23.390625 
Q 47.40625 31.296875 43.53125 35.828125 
Q 39.65625 40.375 33.015625 40.375 
M 52.59375 71.296875 
L 52.59375 62.3125 
Q 48.875 64.0625 45.09375 64.984375 
Q 41.3125 65.921875 37.59375 65.921875 
Q 27.828125 65.921875 22.671875 59.328125 
Q 17.53125 52.734375 16.796875 39.40625 
Q 19.671875 43.65625 24.015625 45.921875 
Q 28.375 48.1875 33.59375 48.1875 
Q 44.578125 48.1875 50.953125 41.515625 
Q 57.328125 34.859375 57.328125 23.390625 
Q 57.328125 12.15625 50.6875 5.359375 
Q 44.046875 -1.421875 33.015625 -1.421875 
Q 20.359375 -1.421875 13.671875 8.265625 
Q 6.984375 17.96875 6.984375 36.375 
Q 6.984375 53.65625 15.1875 63.9375 
Q 23.390625 74.21875 37.203125 74.21875 
Q 40.921875 74.21875 44.703125 73.484375 
Q 48.484375 72.75 52.59375 71.296875 
" id="BitstreamVeraSans-Roman-36"/>
      </defs>
      <g style="fill:#555555;" transform="translate(386.658125 654.738)scale(0.1 -0.1)">
       <use xlink:href="#BitstreamVeraSans-Roman-32"/>
       <use x="63.623046875" xlink:href="#BitstreamVeraSans-Roman-30"/>
       <use x="127.24609375" xlink:href="#BitstreamVeraSans-Roman-31"/>
       <use x="190.869140625" xlink:href="#BitstreamVeraSans-Roman-36"/>
      </g>
     </g>
    </g>
    <g id="xtick_2">
     <g id="line2d_4">
      <defs>
       <path d="M 0 0 
L 0 2 
" id="ma96ac0d628" style="stroke:#555555;stroke-width:0.5;"/>
      </defs>
      <g>
       <use style="fill:#555555;stroke:#555555;stroke-width:0.5;" x="31.103125" xlink:href="#ma96ac0d628" y="627.94175"/>
      </g>
     </g>
     <g id="line2d_5">
      <defs>
       <path d="M 0 0 
L 0 -2 
" id="ma97ff18600" style="stroke:#555555;stroke-width:0.5;"/>
      </defs>
      <g>
       <use style="fill:#555555;stroke:#555555;stroke-width:0.5;" x="31.103125" xlink:href="#ma97ff18600" y="23.14175"/>
      </g>
     </g>
     <g id="text_2">
      <!-- Nov -->
      <defs>
       <path d="M 2.984375 54.6875 
L 12.5 54.6875 
L 29.59375 8.796875 
L 46.6875 54.6875 
L 56.203125 54.6875 
L 35.6875 0 
L 23.484375 0 
z
" id="BitstreamVeraSans-Roman-76"/>
       <path d="M 9.8125 72.90625 
L 23.09375 72.90625 
L 55.421875 11.921875 
L 55.421875 72.90625 
L 64.984375 72.90625 
L 64.984375 0 
L 51.703125 0 
L 19.390625 60.984375 
L 19.390625 0 
L 9.8125 0 
z
" id="BitstreamVeraSans-Roman-4e"/>
       <path d="M 30.609375 48.390625 
Q 23.390625 48.390625 19.1875 42.75 
Q 14.984375 37.109375 14.984375 27.296875 
Q 14.984375 17.484375 19.15625 11.84375 
Q 23.34375 6.203125 30.609375 6.203125 
Q 37.796875 6.203125 41.984375 11.859375 
Q 46.1875 17.53125 46.1875 27.296875 
Q 46.1875 37.015625 41.984375 42.703125 
Q 37.796875 48.390625 30.609375 48.390625 
M 30.609375 56 
Q 42.328125 56 49.015625 48.375 
Q 55.71875 40.765625 55.71875 27.296875 
Q 55.71875 13.875 49.015625 6.21875 
Q 42.328125 -1.421875 30.609375 -1.421875 
Q 18.84375 -1.421875 12.171875 6.21875 
Q 5.515625 13.875 5.515625 27.296875 
Q 5.515625 40.765625 12.171875 48.375 
Q 18.84375 56 30.609375 56 
" id="BitstreamVeraSans-Roman-6f"/>
      </defs>
      <g style="fill:#555555;" transform="translate(21.34375 641.5401875)scale(0.1 -0.1)">
       <use xlink:href="#BitstreamVeraSans-Roman-4e"/>
       <use x="74.8046875" xlink:href="#BitstreamVeraSans-Roman-6f"/>
       <use x="135.986328125" xlink:href="#BitstreamVeraSans-Roman-76"/>
      </g>
     </g>
    </g>
    <g id="xtick_3">
     <g id="line2d_6">
      <g>
       <use style="fill:#555555;stroke:#555555;stroke-width:0.5;" x="215.243125" xlink:href="#ma96ac0d628" y="627.94175"/>
      </g>
     </g>
     <g id="line2d_7">
      <g>
       <use style="fill:#555555;stroke:#555555;stroke-width:0.5;" x="215.243125" xlink:href="#ma97ff18600" y="23.14175"/>
      </g>
     </g>
     <g id="text_3">
      <!-- Dec -->
      <defs>
       <path d="M 56.203125 29.59375 
L 56.203125 25.203125 
L 14.890625 25.203125 
Q 15.484375 15.921875 20.484375 11.0625 
Q 25.484375 6.203125 34.421875 6.203125 
Q 39.59375 6.203125 44.453125 7.46875 
Q 49.3125 8.734375 54.109375 11.28125 
L 54.109375 2.78125 
Q 49.265625 0.734375 44.1875 -0.34375 
Q 39.109375 -1.421875 33.890625 -1.421875 
Q 20.796875 -1.421875 13.15625 6.1875 
Q 5.515625 13.8125 5.515625 26.8125 
Q 5.515625 40.234375 12.765625 48.109375 
Q 20.015625 56 32.328125 56 
Q 43.359375 56 49.78125 48.890625 
Q 56.203125 41.796875 56.203125 29.59375 
M 47.21875 32.234375 
Q 47.125 39.59375 43.09375 43.984375 
Q 39.0625 48.390625 32.421875 48.390625 
Q 24.90625 48.390625 20.390625 44.140625 
Q 15.875 39.890625 15.1875 32.171875 
z
" id="BitstreamVeraSans-Roman-65"/>
       <path d="M 19.671875 64.796875 
L 19.671875 8.109375 
L 31.59375 8.109375 
Q 46.6875 8.109375 53.6875 14.9375 
Q 60.6875 21.78125 60.6875 36.53125 
Q 60.6875 51.171875 53.6875 57.984375 
Q 46.6875 64.796875 31.59375 64.796875 
z
M 9.8125 72.90625 
L 30.078125 72.90625 
Q 51.265625 72.90625 61.171875 64.09375 
Q 71.09375 55.28125 71.09375 36.53125 
Q 71.09375 17.671875 61.125 8.828125 
Q 51.171875 0 30.078125 0 
L 9.8125 0 
z
" id="BitstreamVeraSans-Roman-44"/>
       <path d="M 48.78125 52.59375 
L 48.78125 44.1875 
Q 44.96875 46.296875 41.140625 47.34375 
Q 37.3125 48.390625 33.40625 48.390625 
Q 24.65625 48.390625 19.8125 42.84375 
Q 14.984375 37.3125 14.984375 27.296875 
Q 14.984375 17.28125 19.8125 11.734375 
Q 24.65625 6.203125 33.40625 6.203125 
Q 37.3125 6.203125 41.140625 7.25 
Q 44.96875 8.296875 48.78125 10.40625 
L 48.78125 2.09375 
Q 45.015625 0.34375 40.984375 -0.53125 
Q 36.96875 -1.421875 32.421875 -1.421875 
Q 20.0625 -1.421875 12.78125 6.34375 
Q 5.515625 14.109375 5.515625 27.296875 
Q 5.515625 40.671875 12.859375 48.328125 
Q 20.21875 56 33.015625 56 
Q 37.15625 56 41.109375 55.140625 
Q 45.0625 54.296875 48.78125 52.59375 
" id="BitstreamVeraSans-Roman-63"/>
      </defs>
      <g style="fill:#555555;" transform="translate(205.56734375 641.5401875)scale(0.1 -0.1)">
       <use xlink:href="#BitstreamVeraSans-Roman-44"/>
       <use x="77.001953125" xlink:href="#BitstreamVeraSans-Roman-65"/>
       <use x="138.525390625" xlink:href="#BitstreamVeraSans-Roman-63"/>
      </g>
     </g>
    </g>
    <g id="xtick_4">
     <g id="line2d_8">
      <g>
       <use style="fill:#555555;stroke:#555555;stroke-width:0.5;" x="399.383125" xlink:href="#ma96ac0d628" y="627.94175"/>
      </g>
     </g>
     <g id="line2d_9">
      <g>
       <use style="fill:#555555;stroke:#555555;stroke-width:0.5;" x="399.383125" xlink:href="#ma97ff18600" y="23.14175"/>
      </g>
     </g>
    </g>
    <g id="xtick_5">
     <g id="line2d_10">
      <g>
       <use style="fill:#555555;stroke:#555555;stroke-width:0.5;" x="583.523125" xlink:href="#ma96ac0d628" y="627.94175"/>
      </g>
     </g>
     <g id="line2d_11">
      <g>
       <use style="fill:#555555;stroke:#555555;stroke-width:0.5;" x="583.523125" xlink:href="#ma97ff18600" y="23.14175"/>
      </g>
     </g>
     <g id="text_4">
      <!-- Feb -->
      <defs>
       <path d="M 9.8125 72.90625 
L 51.703125 72.90625 
L 51.703125 64.59375 
L 19.671875 64.59375 
L 19.671875 43.109375 
L 48.578125 43.109375 
L 48.578125 34.8125 
L 19.671875 34.8125 
L 19.671875 0 
L 9.8125 0 
z
" id="BitstreamVeraSans-Roman-46"/>
       <path d="M 48.6875 27.296875 
Q 48.6875 37.203125 44.609375 42.84375 
Q 40.53125 48.484375 33.40625 48.484375 
Q 26.265625 48.484375 22.1875 42.84375 
Q 18.109375 37.203125 18.109375 27.296875 
Q 18.109375 17.390625 22.1875 11.75 
Q 26.265625 6.109375 33.40625 6.109375 
Q 40.53125 6.109375 44.609375 11.75 
Q 48.6875 17.390625 48.6875 27.296875 
M 18.109375 46.390625 
Q 20.953125 51.265625 25.265625 53.625 
Q 29.59375 56 35.59375 56 
Q 45.5625 56 51.78125 48.09375 
Q 58.015625 40.1875 58.015625 27.296875 
Q 58.015625 14.40625 51.78125 6.484375 
Q 45.5625 -1.421875 35.59375 -1.421875 
Q 29.59375 -1.421875 25.265625 0.953125 
Q 20.953125 3.328125 18.109375 8.203125 
L 18.109375 0 
L 9.078125 0 
L 9.078125 75.984375 
L 18.109375 75.984375 
z
" id="BitstreamVeraSans-Roman-62"/>
      </defs>
      <g style="fill:#555555;" transform="translate(574.40046875 641.5401875)scale(0.1 -0.1)">
       <use xlink:href="#BitstreamVeraSans-Roman-46"/>
       <use x="57.44140625" xlink:href="#BitstreamVeraSans-Roman-65"/>
       <use x="118.96484375" xlink:href="#BitstreamVeraSans-Roman-62"/>
      </g>
     </g>
    </g>
    <g id="xtick_6">
     <g id="line2d_12">
      <g>
       <use style="fill:#555555;stroke:#555555;stroke-width:0.5;" x="767.663125" xlink:href="#ma96ac0d628" y="627.94175"/>
      </g>
     </g>
     <g id="line2d_13">
      <g>
       <use style="fill:#555555;stroke:#555555;stroke-width:0.5;" x="767.663125" xlink:href="#ma97ff18600" y="23.14175"/>
      </g>
     </g>
     <g id="text_5">
      <!-- Mar -->
      <defs>
       <path d="M 9.8125 72.90625 
L 24.515625 72.90625 
L 43.109375 23.296875 
L 61.8125 72.90625 
L 76.515625 72.90625 
L 76.515625 0 
L 66.890625 0 
L 66.890625 64.015625 
L 48.09375 14.015625 
L 38.1875 14.015625 
L 19.390625 64.015625 
L 19.390625 0 
L 9.8125 0 
z
" id="BitstreamVeraSans-Roman-4d"/>
       <path d="M 41.109375 46.296875 
Q 39.59375 47.171875 37.8125 47.578125 
Q 36.03125 48 33.890625 48 
Q 26.265625 48 22.1875 43.046875 
Q 18.109375 38.09375 18.109375 28.8125 
L 18.109375 0 
L 9.078125 0 
L 9.078125 54.6875 
L 18.109375 54.6875 
L 18.109375 46.1875 
Q 20.953125 51.171875 25.484375 53.578125 
Q 30.03125 56 36.53125 56 
Q 37.453125 56 38.578125 55.875 
Q 39.703125 55.765625 41.0625 55.515625 
z
" id="BitstreamVeraSans-Roman-72"/>
      </defs>
      <g style="fill:#555555;" transform="translate(758.22953125 641.5401875)scale(0.1 -0.1)">
       <use xlink:href="#BitstreamVeraSans-Roman-4d"/>
       <use x="86.279296875" xlink:href="#BitstreamVeraSans-Roman-61"/>
       <use x="147.55859375" xlink:href="#BitstreamVeraSans-Roman-72"/>
      </g>
     </g>
    </g>
    <g id="xtick_7">
     <g id="line2d_14">
      <g>
       <use style="fill:#555555;stroke:#555555;stroke-width:0.5;" x="951.803125" xlink:href="#ma96ac0d628" y="627.94175"/>
      </g>
     </g>
     <g id="line2d_15">
      <g>
       <use style="fill:#555555;stroke:#555555;stroke-width:0.5;" x="951.803125" xlink:href="#ma97ff18600" y="23.14175"/>
      </g>
     </g>
     <g id="text_6">
      <!-- Apr -->
      <defs>
       <path d="M 18.109375 8.203125 
L 18.109375 -20.796875 
L 9.078125 -20.796875 
L 9.078125 54.6875 
L 18.109375 54.6875 
L 18.109375 46.390625 
Q 20.953125 51.265625 25.265625 53.625 
Q 29.59375 56 35.59375 56 
Q 45.5625 56 51.78125 48.09375 
Q 58.015625 40.1875 58.015625 27.296875 
Q 58.015625 14.40625 51.78125 6.484375 
Q 45.5625 -1.421875 35.59375 -1.421875 
Q 29.59375 -1.421875 25.265625 0.953125 
Q 20.953125 3.328125 18.109375 8.203125 
M 48.6875 27.296875 
Q 48.6875 37.203125 44.609375 42.84375 
Q 40.53125 48.484375 33.40625 48.484375 
Q 26.265625 48.484375 22.1875 42.84375 
Q 18.109375 37.203125 18.109375 27.296875 
Q 18.109375 17.390625 22.1875 11.75 
Q 26.265625 6.109375 33.40625 6.109375 
Q 40.53125 6.109375 44.609375 11.75 
Q 48.6875 17.390625 48.6875 27.296875 
" id="BitstreamVeraSans-Roman-70"/>
       <path d="M 34.1875 63.1875 
L 20.796875 26.90625 
L 47.609375 26.90625 
z
M 28.609375 72.90625 
L 39.796875 72.90625 
L 67.578125 0 
L 57.328125 0 
L 50.6875 18.703125 
L 17.828125 18.703125 
L 11.1875 0 
L 0.78125 0 
z
" id="BitstreamVeraSans-Roman-41"/>
      </defs>
      <g style="fill:#555555;" transform="translate(943.153125 641.5401875)scale(0.1 -0.1)">
       <use xlink:href="#BitstreamVeraSans-Roman-41"/>
       <use x="68.408203125" xlink:href="#BitstreamVeraSans-Roman-70"/>
       <use x="131.884765625" xlink:href="#BitstreamVeraSans-Roman-72"/>
      </g>
     </g>
    </g>
    <g id="text_7">
     <!-- date -->
     <defs>
      <path d="M 45.40625 46.390625 
L 45.40625 75.984375 
L 54.390625 75.984375 
L 54.390625 0 
L 45.40625 0 
L 45.40625 8.203125 
Q 42.578125 3.328125 38.25 0.953125 
Q 33.9375 -1.421875 27.875 -1.421875 
Q 17.96875 -1.421875 11.734375 6.484375 
Q 5.515625 14.40625 5.515625 27.296875 
Q 5.515625 40.1875 11.734375 48.09375 
Q 17.96875 56 27.875 56 
Q 33.9375 56 38.25 53.625 
Q 42.578125 51.265625 45.40625 46.390625 
M 14.796875 27.296875 
Q 14.796875 17.390625 18.875 11.75 
Q 22.953125 6.109375 30.078125 6.109375 
Q 37.203125 6.109375 41.296875 11.75 
Q 45.40625 17.390625 45.40625 27.296875 
Q 45.40625 37.203125 41.296875 42.84375 
Q 37.203125 48.484375 30.078125 48.484375 
Q 22.953125 48.484375 18.875 42.84375 
Q 14.796875 37.203125 14.796875 27.296875 
" id="BitstreamVeraSans-Roman-64"/>
      <path d="M 18.3125 70.21875 
L 18.3125 54.6875 
L 36.8125 54.6875 
L 36.8125 47.703125 
L 18.3125 47.703125 
L 18.3125 18.015625 
Q 18.3125 11.328125 20.140625 9.421875 
Q 21.96875 7.515625 27.59375 7.515625 
L 36.8125 7.515625 
L 36.8125 0 
L 27.59375 0 
Q 17.1875 0 13.234375 3.875 
Q 9.28125 7.765625 9.28125 18.015625 
L 9.28125 47.703125 
L 2.6875 47.703125 
L 2.6875 54.6875 
L 9.28125 54.6875 
L 9.28125 70.21875 
z
" id="BitstreamVeraSans-Roman-74"/>
     </defs>
     <g style="fill:#555555;" transform="translate(477.923125 670.9358125)scale(0.12 -0.12)">
      <use xlink:href="#BitstreamVeraSans-Roman-64"/>
      <use x="63.4765625" xlink:href="#BitstreamVeraSans-Roman-61"/>
      <use x="124.755859375" xlink:href="#BitstreamVeraSans-Roman-74"/>
      <use x="163.96484375" xlink:href="#BitstreamVeraSans-Roman-65"/>
     </g>
    </g>
   </g>
   <g id="matplotlib.axis_2">
    <g id="ytick_1">
     <g id="line2d_16">
      <path clip-path="url(#p1db0f1733e)" d="M 31.103125 627.94175 
L 951.803125 627.94175 
" style="fill:none;stroke:#ffffff;stroke-linecap:square;stroke-width:0.5;"/>
     </g>
     <g id="line2d_17">
      <defs>
       <path d="M 0 0 
L -4 0 
" id="m6ebc4a6fe7" style="stroke:#555555;stroke-width:0.5;"/>
      </defs>
      <g>
       <use style="fill:#555555;stroke:#555555;stroke-width:0.5;" x="31.103125" xlink:href="#m6ebc4a6fe7" y="627.94175"/>
      </g>
     </g>
     <g id="line2d_18">
      <defs>
       <path d="M 0 0 
L 4 0 
" id="md16b4b7d76" style="stroke:#555555;stroke-width:0.5;"/>
      </defs>
      <g>
       <use style="fill:#555555;stroke:#555555;stroke-width:0.5;" x="951.803125" xlink:href="#md16b4b7d76" y="627.94175"/>
      </g>
     </g>
     <g id="text_8">
      <!-- 0.0 -->
      <defs>
       <path d="M 10.6875 12.40625 
L 21 12.40625 
L 21 0 
L 10.6875 0 
z
" id="BitstreamVeraSans-Roman-2e"/>
      </defs>
      <g style="fill:#555555;" transform="translate(7.2 630.701125)scale(0.1 -0.1)">
       <use xlink:href="#BitstreamVeraSans-Roman-30"/>
       <use x="63.623046875" xlink:href="#BitstreamVeraSans-Roman-2e"/>
       <use x="95.41015625" xlink:href="#BitstreamVeraSans-Roman-30"/>
      </g>
     </g>
    </g>
    <g id="ytick_2">
     <g id="line2d_19">
      <path clip-path="url(#p1db0f1733e)" d="M 31.103125 506.98175 
L 951.803125 506.98175 
" style="fill:none;stroke:#ffffff;stroke-linecap:square;stroke-width:0.5;"/>
     </g>
     <g id="line2d_20">
      <g>
       <use style="fill:#555555;stroke:#555555;stroke-width:0.5;" x="31.103125" xlink:href="#m6ebc4a6fe7" y="506.98175"/>
      </g>
     </g>
     <g id="line2d_21">
      <g>
       <use style="fill:#555555;stroke:#555555;stroke-width:0.5;" x="951.803125" xlink:href="#md16b4b7d76" y="506.98175"/>
      </g>
     </g>
     <g id="text_9">
      <!-- 0.2 -->
      <g style="fill:#555555;" transform="translate(7.2 509.741125)scale(0.1 -0.1)">
       <use xlink:href="#BitstreamVeraSans-Roman-30"/>
       <use x="63.623046875" xlink:href="#BitstreamVeraSans-Roman-2e"/>
       <use x="95.41015625" xlink:href="#BitstreamVeraSans-Roman-32"/>
      </g>
     </g>
    </g>
    <g id="ytick_3">
     <g id="line2d_22">
      <path clip-path="url(#p1db0f1733e)" d="M 31.103125 386.02175 
L 951.803125 386.02175 
" style="fill:none;stroke:#ffffff;stroke-linecap:square;stroke-width:0.5;"/>
     </g>
     <g id="line2d_23">
      <g>
       <use style="fill:#555555;stroke:#555555;stroke-width:0.5;" x="31.103125" xlink:href="#m6ebc4a6fe7" y="386.02175"/>
      </g>
     </g>
     <g id="line2d_24">
      <g>
       <use style="fill:#555555;stroke:#555555;stroke-width:0.5;" x="951.803125" xlink:href="#md16b4b7d76" y="386.02175"/>
      </g>
     </g>
     <g id="text_10">
      <!-- 0.4 -->
      <defs>
       <path d="M 37.796875 64.3125 
L 12.890625 25.390625 
L 37.796875 25.390625 
z
M 35.203125 72.90625 
L 47.609375 72.90625 
L 47.609375 25.390625 
L 58.015625 25.390625 
L 58.015625 17.1875 
L 47.609375 17.1875 
L 47.609375 0 
L 37.796875 0 
L 37.796875 17.1875 
L 4.890625 17.1875 
L 4.890625 26.703125 
z
" id="BitstreamVeraSans-Roman-34"/>
      </defs>
      <g style="fill:#555555;" transform="translate(7.2 388.781125)scale(0.1 -0.1)">
       <use xlink:href="#BitstreamVeraSans-Roman-30"/>
       <use x="63.623046875" xlink:href="#BitstreamVeraSans-Roman-2e"/>
       <use x="95.41015625" xlink:href="#BitstreamVeraSans-Roman-34"/>
      </g>
     </g>
    </g>
    <g id="ytick_4">
     <g id="line2d_25">
      <path clip-path="url(#p1db0f1733e)" d="M 31.103125 265.06175 
L 951.803125 265.06175 
" style="fill:none;stroke:#ffffff;stroke-linecap:square;stroke-width:0.5;"/>
     </g>
     <g id="line2d_26">
      <g>
       <use style="fill:#555555;stroke:#555555;stroke-width:0.5;" x="31.103125" xlink:href="#m6ebc4a6fe7" y="265.06175"/>
      </g>
     </g>
     <g id="line2d_27">
      <g>
       <use style="fill:#555555;stroke:#555555;stroke-width:0.5;" x="951.803125" xlink:href="#md16b4b7d76" y="265.06175"/>
      </g>
     </g>
     <g id="text_11">
      <!-- 0.6 -->
      <g style="fill:#555555;" transform="translate(7.2 267.821125)scale(0.1 -0.1)">
       <use xlink:href="#BitstreamVeraSans-Roman-30"/>
       <use x="63.623046875" xlink:href="#BitstreamVeraSans-Roman-2e"/>
       <use x="95.41015625" xlink:href="#BitstreamVeraSans-Roman-36"/>
      </g>
     </g>
    </g>
    <g id="ytick_5">
     <g id="line2d_28">
      <path clip-path="url(#p1db0f1733e)" d="M 31.103125 144.10175 
L 951.803125 144.10175 
" style="fill:none;stroke:#ffffff;stroke-linecap:square;stroke-width:0.5;"/>
     </g>
     <g id="line2d_29">
      <g>
       <use style="fill:#555555;stroke:#555555;stroke-width:0.5;" x="31.103125" xlink:href="#m6ebc4a6fe7" y="144.10175"/>
      </g>
     </g>
     <g id="line2d_30">
      <g>
       <use style="fill:#555555;stroke:#555555;stroke-width:0.5;" x="951.803125" xlink:href="#md16b4b7d76" y="144.10175"/>
      </g>
     </g>
     <g id="text_12">
      <!-- 0.8 -->
      <defs>
       <path d="M 31.78125 34.625 
Q 24.75 34.625 20.71875 30.859375 
Q 16.703125 27.09375 16.703125 20.515625 
Q 16.703125 13.921875 20.71875 10.15625 
Q 24.75 6.390625 31.78125 6.390625 
Q 38.8125 6.390625 42.859375 10.171875 
Q 46.921875 13.96875 46.921875 20.515625 
Q 46.921875 27.09375 42.890625 30.859375 
Q 38.875 34.625 31.78125 34.625 
M 21.921875 38.8125 
Q 15.578125 40.375 12.03125 44.71875 
Q 8.5 49.078125 8.5 55.328125 
Q 8.5 64.0625 14.71875 69.140625 
Q 20.953125 74.21875 31.78125 74.21875 
Q 42.671875 74.21875 48.875 69.140625 
Q 55.078125 64.0625 55.078125 55.328125 
Q 55.078125 49.078125 51.53125 44.71875 
Q 48 40.375 41.703125 38.8125 
Q 48.828125 37.15625 52.796875 32.3125 
Q 56.78125 27.484375 56.78125 20.515625 
Q 56.78125 9.90625 50.3125 4.234375 
Q 43.84375 -1.421875 31.78125 -1.421875 
Q 19.734375 -1.421875 13.25 4.234375 
Q 6.78125 9.90625 6.78125 20.515625 
Q 6.78125 27.484375 10.78125 32.3125 
Q 14.796875 37.15625 21.921875 38.8125 
M 18.3125 54.390625 
Q 18.3125 48.734375 21.84375 45.5625 
Q 25.390625 42.390625 31.78125 42.390625 
Q 38.140625 42.390625 41.71875 45.5625 
Q 45.3125 48.734375 45.3125 54.390625 
Q 45.3125 60.0625 41.71875 63.234375 
Q 38.140625 66.40625 31.78125 66.40625 
Q 25.390625 66.40625 21.84375 63.234375 
Q 18.3125 60.0625 18.3125 54.390625 
" id="BitstreamVeraSans-Roman-38"/>
      </defs>
      <g style="fill:#555555;" transform="translate(7.2 146.861125)scale(0.1 -0.1)">
       <use xlink:href="#BitstreamVeraSans-Roman-30"/>
       <use x="63.623046875" xlink:href="#BitstreamVeraSans-Roman-2e"/>
       <use x="95.41015625" xlink:href="#BitstreamVeraSans-Roman-38"/>
      </g>
     </g>
    </g>
    <g id="ytick_6">
     <g id="line2d_31">
      <path clip-path="url(#p1db0f1733e)" d="M 31.103125 23.14175 
L 951.803125 23.14175 
" style="fill:none;stroke:#ffffff;stroke-linecap:square;stroke-width:0.5;"/>
     </g>
     <g id="line2d_32">
      <g>
       <use style="fill:#555555;stroke:#555555;stroke-width:0.5;" x="31.103125" xlink:href="#m6ebc4a6fe7" y="23.14175"/>
      </g>
     </g>
     <g id="line2d_33">
      <g>
       <use style="fill:#555555;stroke:#555555;stroke-width:0.5;" x="951.803125" xlink:href="#md16b4b7d76" y="23.14175"/>
      </g>
     </g>
     <g id="text_13">
      <!-- 1.0 -->
      <g style="fill:#555555;" transform="translate(7.2 25.901125)scale(0.1 -0.1)">
       <use xlink:href="#BitstreamVeraSans-Roman-31"/>
       <use x="63.623046875" xlink:href="#BitstreamVeraSans-Roman-2e"/>
       <use x="95.41015625" xlink:href="#BitstreamVeraSans-Roman-30"/>
      </g>
     </g>
    </g>
   </g>
   <g id="line2d_34">
    <path clip-path="url(#p1db0f1733e)" d="M 31.103125 23.14175 
L 215.243125 627.94175 
L 399.383125 627.94175 
L 583.523125 23.14175 
L 767.663125 627.94175 
L 951.803125 23.14175 
" style="fill:none;stroke:#e24a33;stroke-linecap:square;"/>
   </g>
   <g id="line2d_35">
    <path clip-path="url(#p1db0f1733e)" d="M 31.103125 23.14175 
L 215.243125 627.94175 
L 399.383125 627.94175 
L 583.523125 627.94175 
L 767.663125 627.94175 
L 951.803125 23.14175 
" style="fill:none;stroke:#348abd;stroke-linecap:square;"/>
   </g>
   <g id="line2d_36">
    <path clip-path="url(#p1db0f1733e)" d="M 31.103125 627.94175 
L 215.243125 627.94175 
L 399.383125 627.94175 
L 583.523125 23.14175 
L 767.663125 627.94175 
L 951.803125 627.94175 
" style="fill:none;stroke:#988ed5;stroke-linecap:square;"/>
   </g>
   <g id="line2d_37">
    <path clip-path="url(#p1db0f1733e)" d="M 31.103125 627.94175 
L 215.243125 627.94175 
L 399.383125 627.94175 
L 583.523125 627.94175 
L 767.663125 627.94175 
L 951.803125 627.94175 
" style="fill:none;stroke:#777777;stroke-linecap:square;"/>
   </g>
   <g id="line2d_38">
    <path clip-path="url(#p1db0f1733e)" d="M 31.103125 23.14175 
L 215.243125 627.94175 
L 399.383125 627.94175 
L 583.523125 627.94175 
L 767.663125 627.94175 
L 951.803125 627.94175 
" style="fill:none;stroke:#fbc15e;stroke-linecap:square;"/>
   </g>
   <g id="line2d_39">
    <path clip-path="url(#p1db0f1733e)" d="M 31.103125 23.14175 
L 215.243125 627.94175 
L 399.383125 627.94175 
L 583.523125 627.94175 
L 767.663125 627.94175 
L 951.803125 627.94175 
" style="fill:none;stroke:#8eba42;stroke-linecap:square;"/>
   </g>
   <g id="line2d_40">
    <path clip-path="url(#p1db0f1733e)" d="M 31.103125 627.94175 
L 215.243125 627.94175 
L 399.383125 627.94175 
L 583.523125 627.94175 
L 767.663125 627.94175 
L 951.803125 627.94175 
" style="fill:none;stroke:#ffb5b8;stroke-linecap:square;"/>
   </g>
   <g id="line2d_41">
    <path clip-path="url(#p1db0f1733e)" d="M 31.103125 627.94175 
L 215.243125 627.94175 
L 399.383125 627.94175 
L 583.523125 627.94175 
L 767.663125 627.94175 
L 951.803125 627.94175 
" style="fill:none;stroke:#e24a33;stroke-linecap:square;"/>
   </g>
   <g id="patch_3">
    <path d="M 31.103125 23.14175 
L 951.803125 23.14175 
" style="fill:none;stroke:#ffffff;stroke-linecap:square;stroke-linejoin:miter;"/>
   </g>
   <g id="patch_4">
    <path d="M 951.803125 627.94175 
L 951.803125 23.14175 
" style="fill:none;stroke:#ffffff;stroke-linecap:square;stroke-linejoin:miter;"/>
   </g>
   <g id="patch_5">
    <path d="M 31.103125 627.94175 
L 951.803125 627.94175 
" style="fill:none;stroke:#ffffff;stroke-linecap:square;stroke-linejoin:miter;"/>
   </g>
   <g id="patch_6">
    <path d="M 31.103125 627.94175 
L 31.103125 23.14175 
" style="fill:none;stroke:#ffffff;stroke-linecap:square;stroke-linejoin:miter;"/>
   </g>
   <g id="text_14">
    <!-- issue history grouped by month -->
    <defs>
     <path id="BitstreamVeraSans-Roman-20"/>
     <path d="M 52 44.1875 
Q 55.375 50.25 60.0625 53.125 
Q 64.75 56 71.09375 56 
Q 79.640625 56 84.28125 50.015625 
Q 88.921875 44.046875 88.921875 33.015625 
L 88.921875 0 
L 79.890625 0 
L 79.890625 32.71875 
Q 79.890625 40.578125 77.09375 44.375 
Q 74.3125 48.1875 68.609375 48.1875 
Q 61.625 48.1875 57.5625 43.546875 
Q 53.515625 38.921875 53.515625 30.90625 
L 53.515625 0 
L 44.484375 0 
L 44.484375 32.71875 
Q 44.484375 40.625 41.703125 44.40625 
Q 38.921875 48.1875 33.109375 48.1875 
Q 26.21875 48.1875 22.15625 43.53125 
Q 18.109375 38.875 18.109375 30.90625 
L 18.109375 0 
L 9.078125 0 
L 9.078125 54.6875 
L 18.109375 54.6875 
L 18.109375 46.1875 
Q 21.1875 51.21875 25.484375 53.609375 
Q 29.78125 56 35.6875 56 
Q 41.65625 56 45.828125 52.96875 
Q 50 49.953125 52 44.1875 
" id="BitstreamVeraSans-Roman-6d"/>
     <path d="M 9.421875 54.6875 
L 18.40625 54.6875 
L 18.40625 0 
L 9.421875 0 
z
M 9.421875 75.984375 
L 18.40625 75.984375 
L 18.40625 64.59375 
L 9.421875 64.59375 
z
" id="BitstreamVeraSans-Roman-69"/>
     <path d="M 54.890625 33.015625 
L 54.890625 0 
L 45.90625 0 
L 45.90625 32.71875 
Q 45.90625 40.484375 42.875 44.328125 
Q 39.84375 48.1875 33.796875 48.1875 
Q 26.515625 48.1875 22.3125 43.546875 
Q 18.109375 38.921875 18.109375 30.90625 
L 18.109375 0 
L 9.078125 0 
L 9.078125 75.984375 
L 18.109375 75.984375 
L 18.109375 46.1875 
Q 21.34375 51.125 25.703125 53.5625 
Q 30.078125 56 35.796875 56 
Q 45.21875 56 50.046875 50.171875 
Q 54.890625 44.34375 54.890625 33.015625 
" id="BitstreamVeraSans-Roman-68"/>
     <path d="M 32.171875 -5.078125 
Q 28.375 -14.84375 24.75 -17.8125 
Q 21.140625 -20.796875 15.09375 -20.796875 
L 7.90625 -20.796875 
L 7.90625 -13.28125 
L 13.1875 -13.28125 
Q 16.890625 -13.28125 18.9375 -11.515625 
Q 21 -9.765625 23.484375 -3.21875 
L 25.09375 0.875 
L 2.984375 54.6875 
L 12.5 54.6875 
L 29.59375 11.921875 
L 46.6875 54.6875 
L 56.203125 54.6875 
z
" id="BitstreamVeraSans-Roman-79"/>
     <path d="M 45.40625 27.984375 
Q 45.40625 37.75 41.375 43.109375 
Q 37.359375 48.484375 30.078125 48.484375 
Q 22.859375 48.484375 18.828125 43.109375 
Q 14.796875 37.75 14.796875 27.984375 
Q 14.796875 18.265625 18.828125 12.890625 
Q 22.859375 7.515625 30.078125 7.515625 
Q 37.359375 7.515625 41.375 12.890625 
Q 45.40625 18.265625 45.40625 27.984375 
M 54.390625 6.78125 
Q 54.390625 -7.171875 48.1875 -13.984375 
Q 42 -20.796875 29.203125 -20.796875 
Q 24.46875 -20.796875 20.265625 -20.09375 
Q 16.0625 -19.390625 12.109375 -17.921875 
L 12.109375 -9.1875 
Q 16.0625 -11.328125 19.921875 -12.34375 
Q 23.78125 -13.375 27.78125 -13.375 
Q 36.625 -13.375 41.015625 -8.765625 
Q 45.40625 -4.15625 45.40625 5.171875 
L 45.40625 9.625 
Q 42.625 4.78125 38.28125 2.390625 
Q 33.9375 0 27.875 0 
Q 17.828125 0 11.671875 7.65625 
Q 5.515625 15.328125 5.515625 27.984375 
Q 5.515625 40.671875 11.671875 48.328125 
Q 17.828125 56 27.875 56 
Q 33.9375 56 38.28125 53.609375 
Q 42.625 51.21875 45.40625 46.390625 
L 45.40625 54.6875 
L 54.390625 54.6875 
z
" id="BitstreamVeraSans-Roman-67"/>
     <path d="M 8.5 21.578125 
L 8.5 54.6875 
L 17.484375 54.6875 
L 17.484375 21.921875 
Q 17.484375 14.15625 20.5 10.265625 
Q 23.53125 6.390625 29.59375 6.390625 
Q 36.859375 6.390625 41.078125 11.03125 
Q 45.3125 15.671875 45.3125 23.6875 
L 45.3125 54.6875 
L 54.296875 54.6875 
L 54.296875 0 
L 45.3125 0 
L 45.3125 8.40625 
Q 42.046875 3.421875 37.71875 1 
Q 33.40625 -1.421875 27.6875 -1.421875 
Q 18.265625 -1.421875 13.375 4.4375 
Q 8.5 10.296875 8.5 21.578125 
" id="BitstreamVeraSans-Roman-75"/>
     <path d="M 44.28125 53.078125 
L 44.28125 44.578125 
Q 40.484375 46.53125 36.375 47.5 
Q 32.28125 48.484375 27.875 48.484375 
Q 21.1875 48.484375 17.84375 46.4375 
Q 14.5 44.390625 14.5 40.28125 
Q 14.5 37.15625 16.890625 35.375 
Q 19.28125 33.59375 26.515625 31.984375 
L 29.59375 31.296875 
Q 39.15625 29.25 43.1875 25.515625 
Q 47.21875 21.78125 47.21875 15.09375 
Q 47.21875 7.46875 41.1875 3.015625 
Q 35.15625 -1.421875 24.609375 -1.421875 
Q 20.21875 -1.421875 15.453125 -0.5625 
Q 10.6875 0.296875 5.421875 2 
L 5.421875 11.28125 
Q 10.40625 8.6875 15.234375 7.390625 
Q 20.0625 6.109375 24.8125 6.109375 
Q 31.15625 6.109375 34.5625 8.28125 
Q 37.984375 10.453125 37.984375 14.40625 
Q 37.984375 18.0625 35.515625 20.015625 
Q 33.0625 21.96875 24.703125 23.78125 
L 21.578125 24.515625 
Q 13.234375 26.265625 9.515625 29.90625 
Q 5.8125 33.546875 5.8125 39.890625 
Q 5.8125 47.609375 11.28125 51.796875 
Q 16.75 56 26.8125 56 
Q 31.78125 56 36.171875 55.265625 
Q 40.578125 54.546875 44.28125 53.078125 
" id="BitstreamVeraSans-Roman-73"/>
    </defs>
    <g transform="translate(376.772875 18.14175)scale(0.144 -0.144)">
     <use xlink:href="#BitstreamVeraSans-Roman-69"/>
     <use x="27.783203125" xlink:href="#BitstreamVeraSans-Roman-73"/>
     <use x="79.8828125" xlink:href="#BitstreamVeraSans-Roman-73"/>
     <use x="131.982421875" xlink:href="#BitstreamVeraSans-Roman-75"/>
     <use x="195.361328125" xlink:href="#BitstreamVeraSans-Roman-65"/>
     <use x="256.884765625" xlink:href="#BitstreamVeraSans-Roman-20"/>
     <use x="288.671875" xlink:href="#BitstreamVeraSans-Roman-68"/>
     <use x="352.05078125" xlink:href="#BitstreamVeraSans-Roman-69"/>
     <use x="379.833984375" xlink:href="#BitstreamVeraSans-Roman-73"/>
     <use x="431.93359375" xlink:href="#BitstreamVeraSans-Roman-74"/>
     <use x="471.142578125" xlink:href="#BitstreamVeraSans-Roman-6f"/>
     <use x="532.32421875" xlink:href="#BitstreamVeraSans-Roman-72"/>
     <use x="573.4375" xlink:href="#BitstreamVeraSans-Roman-79"/>
     <use x="632.6171875" xlink:href="#BitstreamVeraSans-Roman-20"/>
     <use x="664.404296875" xlink:href="#BitstreamVeraSans-Roman-67"/>
     <use x="727.880859375" xlink:href="#BitstreamVeraSans-Roman-72"/>
     <use x="768.962890625" xlink:href="#BitstreamVeraSans-Roman-6f"/>
     <use x="830.14453125" xlink:href="#BitstreamVeraSans-Roman-75"/>
     <use x="893.5234375" xlink:href="#BitstreamVeraSans-Roman-70"/>
     <use x="957.0" xlink:href="#BitstreamVeraSans-Roman-65"/>
     <use x="1018.5234375" xlink:href="#BitstreamVeraSans-Roman-64"/>
     <use x="1082.0" xlink:href="#BitstreamVeraSans-Roman-20"/>
     <use x="1113.78710938" xlink:href="#BitstreamVeraSans-Roman-62"/>
     <use x="1177.26367188" xlink:href="#BitstreamVeraSans-Roman-79"/>
     <use x="1236.44335938" xlink:href="#BitstreamVeraSans-Roman-20"/>
     <use x="1268.23046875" xlink:href="#BitstreamVeraSans-Roman-6d"/>
     <use x="1365.64257812" xlink:href="#BitstreamVeraSans-Roman-6f"/>
     <use x="1426.82421875" xlink:href="#BitstreamVeraSans-Roman-6e"/>
     <use x="1490.203125" xlink:href="#BitstreamVeraSans-Roman-74"/>
     <use x="1529.41210938" xlink:href="#BitstreamVeraSans-Roman-68"/>
    </g>
   </g>
   <g id="legend_1">
    <g id="patch_7">
     <path d="M 701.531875 176.32175 
L 945.803125 176.32175 
L 945.803125 29.14175 
L 701.531875 29.14175 
z
" style="fill:#e5e5e5;stroke:#ffffff;stroke-linejoin:miter;stroke-width:0.5;"/>
    </g>
    <g id="line2d_42">
     <path d="M 709.931875 38.859875 
L 726.731875 38.859875 
" style="fill:none;stroke:#e24a33;stroke-linecap:square;"/>
    </g>
    <g id="line2d_43"/>
    <g id="text_15">
     <!-- opened__all__issue__all -->
     <defs>
      <path d="M 9.421875 75.984375 
L 18.40625 75.984375 
L 18.40625 0 
L 9.421875 0 
z
" id="BitstreamVeraSans-Roman-6c"/>
      <path d="M 50.984375 -16.609375 
L 50.984375 -23.578125 
L -0.984375 -23.578125 
L -0.984375 -16.609375 
z
" id="BitstreamVeraSans-Roman-5f"/>
     </defs>
     <g transform="translate(739.931875 43.059875)scale(0.12 -0.12)">
      <use xlink:href="#BitstreamVeraSans-Roman-6f"/>
      <use x="61.181640625" xlink:href="#BitstreamVeraSans-Roman-70"/>
      <use x="124.658203125" xlink:href="#BitstreamVeraSans-Roman-65"/>
      <use x="186.181640625" xlink:href="#BitstreamVeraSans-Roman-6e"/>
      <use x="249.560546875" xlink:href="#BitstreamVeraSans-Roman-65"/>
      <use x="311.083984375" xlink:href="#BitstreamVeraSans-Roman-64"/>
      <use x="374.560546875" xlink:href="#BitstreamVeraSans-Roman-5f"/>
      <use x="424.560546875" xlink:href="#BitstreamVeraSans-Roman-5f"/>
      <use x="474.560546875" xlink:href="#BitstreamVeraSans-Roman-61"/>
      <use x="535.83984375" xlink:href="#BitstreamVeraSans-Roman-6c"/>
      <use x="563.623046875" xlink:href="#BitstreamVeraSans-Roman-6c"/>
      <use x="591.40625" xlink:href="#BitstreamVeraSans-Roman-5f"/>
      <use x="641.40625" xlink:href="#BitstreamVeraSans-Roman-5f"/>
      <use x="691.40625" xlink:href="#BitstreamVeraSans-Roman-69"/>
      <use x="719.189453125" xlink:href="#BitstreamVeraSans-Roman-73"/>
      <use x="771.2890625" xlink:href="#BitstreamVeraSans-Roman-73"/>
      <use x="823.388671875" xlink:href="#BitstreamVeraSans-Roman-75"/>
      <use x="886.767578125" xlink:href="#BitstreamVeraSans-Roman-65"/>
      <use x="948.291015625" xlink:href="#BitstreamVeraSans-Roman-5f"/>
      <use x="998.291015625" xlink:href="#BitstreamVeraSans-Roman-5f"/>
      <use x="1048.29101562" xlink:href="#BitstreamVeraSans-Roman-61"/>
      <use x="1109.5703125" xlink:href="#BitstreamVeraSans-Roman-6c"/>
      <use x="1137.35351562" xlink:href="#BitstreamVeraSans-Roman-6c"/>
     </g>
    </g>
    <g id="line2d_44">
     <path d="M 709.931875 56.807375 
L 726.731875 56.807375 
" style="fill:none;stroke:#348abd;stroke-linecap:square;"/>
    </g>
    <g id="line2d_45"/>
    <g id="text_16">
     <!-- opened__all__issue__bug_report -->
     <g transform="translate(739.931875 61.007375)scale(0.12 -0.12)">
      <use xlink:href="#BitstreamVeraSans-Roman-6f"/>
      <use x="61.181640625" xlink:href="#BitstreamVeraSans-Roman-70"/>
      <use x="124.658203125" xlink:href="#BitstreamVeraSans-Roman-65"/>
      <use x="186.181640625" xlink:href="#BitstreamVeraSans-Roman-6e"/>
      <use x="249.560546875" xlink:href="#BitstreamVeraSans-Roman-65"/>
      <use x="311.083984375" xlink:href="#BitstreamVeraSans-Roman-64"/>
      <use x="374.560546875" xlink:href="#BitstreamVeraSans-Roman-5f"/>
      <use x="424.560546875" xlink:href="#BitstreamVeraSans-Roman-5f"/>
      <use x="474.560546875" xlink:href="#BitstreamVeraSans-Roman-61"/>
      <use x="535.83984375" xlink:href="#BitstreamVeraSans-Roman-6c"/>
      <use x="563.623046875" xlink:href="#BitstreamVeraSans-Roman-6c"/>
      <use x="591.40625" xlink:href="#BitstreamVeraSans-Roman-5f"/>
      <use x="641.40625" xlink:href="#BitstreamVeraSans-Roman-5f"/>
      <use x="691.40625" xlink:href="#BitstreamVeraSans-Roman-69"/>
      <use x="719.189453125" xlink:href="#BitstreamVeraSans-Roman-73"/>
      <use x="771.2890625" xlink:href="#BitstreamVeraSans-Roman-73"/>
      <use x="823.388671875" xlink:href="#BitstreamVeraSans-Roman-75"/>
      <use x="886.767578125" xlink:href="#BitstreamVeraSans-Roman-65"/>
      <use x="948.291015625" xlink:href="#BitstreamVeraSans-Roman-5f"/>
      <use x="998.291015625" xlink:href="#BitstreamVeraSans-Roman-5f"/>
      <use x="1048.29101562" xlink:href="#BitstreamVeraSans-Roman-62"/>
      <use x="1111.76757812" xlink:href="#BitstreamVeraSans-Roman-75"/>
      <use x="1175.14648438" xlink:href="#BitstreamVeraSans-Roman-67"/>
      <use x="1238.62304688" xlink:href="#BitstreamVeraSans-Roman-5f"/>
      <use x="1288.62304688" xlink:href="#BitstreamVeraSans-Roman-72"/>
      <use x="1329.70507812" xlink:href="#BitstreamVeraSans-Roman-65"/>
      <use x="1391.22851562" xlink:href="#BitstreamVeraSans-Roman-70"/>
      <use x="1454.70507812" xlink:href="#BitstreamVeraSans-Roman-6f"/>
      <use x="1515.88671875" xlink:href="#BitstreamVeraSans-Roman-72"/>
      <use x="1557.0" xlink:href="#BitstreamVeraSans-Roman-74"/>
     </g>
    </g>
    <g id="line2d_46">
     <path d="M 709.931875 74.754875 
L 726.731875 74.754875 
" style="fill:none;stroke:#988ed5;stroke-linecap:square;"/>
    </g>
    <g id="line2d_47"/>
    <g id="text_17">
     <!-- opened__all__issue__feature_idea -->
     <defs>
      <path d="M 37.109375 75.984375 
L 37.109375 68.5 
L 28.515625 68.5 
Q 23.6875 68.5 21.796875 66.546875 
Q 19.921875 64.59375 19.921875 59.515625 
L 19.921875 54.6875 
L 34.71875 54.6875 
L 34.71875 47.703125 
L 19.921875 47.703125 
L 19.921875 0 
L 10.890625 0 
L 10.890625 47.703125 
L 2.296875 47.703125 
L 2.296875 54.6875 
L 10.890625 54.6875 
L 10.890625 58.5 
Q 10.890625 67.625 15.140625 71.796875 
Q 19.390625 75.984375 28.609375 75.984375 
z
" id="BitstreamVeraSans-Roman-66"/>
     </defs>
     <g transform="translate(739.931875 78.954875)scale(0.12 -0.12)">
      <use xlink:href="#BitstreamVeraSans-Roman-6f"/>
      <use x="61.181640625" xlink:href="#BitstreamVeraSans-Roman-70"/>
      <use x="124.658203125" xlink:href="#BitstreamVeraSans-Roman-65"/>
      <use x="186.181640625" xlink:href="#BitstreamVeraSans-Roman-6e"/>
      <use x="249.560546875" xlink:href="#BitstreamVeraSans-Roman-65"/>
      <use x="311.083984375" xlink:href="#BitstreamVeraSans-Roman-64"/>
      <use x="374.560546875" xlink:href="#BitstreamVeraSans-Roman-5f"/>
      <use x="424.560546875" xlink:href="#BitstreamVeraSans-Roman-5f"/>
      <use x="474.560546875" xlink:href="#BitstreamVeraSans-Roman-61"/>
      <use x="535.83984375" xlink:href="#BitstreamVeraSans-Roman-6c"/>
      <use x="563.623046875" xlink:href="#BitstreamVeraSans-Roman-6c"/>
      <use x="591.40625" xlink:href="#BitstreamVeraSans-Roman-5f"/>
      <use x="641.40625" xlink:href="#BitstreamVeraSans-Roman-5f"/>
      <use x="691.40625" xlink:href="#BitstreamVeraSans-Roman-69"/>
      <use x="719.189453125" xlink:href="#BitstreamVeraSans-Roman-73"/>
      <use x="771.2890625" xlink:href="#BitstreamVeraSans-Roman-73"/>
      <use x="823.388671875" xlink:href="#BitstreamVeraSans-Roman-75"/>
      <use x="886.767578125" xlink:href="#BitstreamVeraSans-Roman-65"/>
      <use x="948.291015625" xlink:href="#BitstreamVeraSans-Roman-5f"/>
      <use x="998.291015625" xlink:href="#BitstreamVeraSans-Roman-5f"/>
      <use x="1048.29101562" xlink:href="#BitstreamVeraSans-Roman-66"/>
      <use x="1083.49609375" xlink:href="#BitstreamVeraSans-Roman-65"/>
      <use x="1145.01953125" xlink:href="#BitstreamVeraSans-Roman-61"/>
      <use x="1206.29882812" xlink:href="#BitstreamVeraSans-Roman-74"/>
      <use x="1245.5078125" xlink:href="#BitstreamVeraSans-Roman-75"/>
      <use x="1308.88671875" xlink:href="#BitstreamVeraSans-Roman-72"/>
      <use x="1349.96875" xlink:href="#BitstreamVeraSans-Roman-65"/>
      <use x="1411.4921875" xlink:href="#BitstreamVeraSans-Roman-5f"/>
      <use x="1461.4921875" xlink:href="#BitstreamVeraSans-Roman-69"/>
      <use x="1489.27539062" xlink:href="#BitstreamVeraSans-Roman-64"/>
      <use x="1552.75195312" xlink:href="#BitstreamVeraSans-Roman-65"/>
      <use x="1614.27539062" xlink:href="#BitstreamVeraSans-Roman-61"/>
     </g>
    </g>
    <g id="line2d_48">
     <path d="M 709.931875 92.702375 
L 726.731875 92.702375 
" style="fill:none;stroke:#777777;stroke-linecap:square;"/>
    </g>
    <g id="line2d_49"/>
    <g id="text_18">
     <!-- opened__all__issue__docs_report -->
     <g transform="translate(739.931875 96.902375)scale(0.12 -0.12)">
      <use xlink:href="#BitstreamVeraSans-Roman-6f"/>
      <use x="61.181640625" xlink:href="#BitstreamVeraSans-Roman-70"/>
      <use x="124.658203125" xlink:href="#BitstreamVeraSans-Roman-65"/>
      <use x="186.181640625" xlink:href="#BitstreamVeraSans-Roman-6e"/>
      <use x="249.560546875" xlink:href="#BitstreamVeraSans-Roman-65"/>
      <use x="311.083984375" xlink:href="#BitstreamVeraSans-Roman-64"/>
      <use x="374.560546875" xlink:href="#BitstreamVeraSans-Roman-5f"/>
      <use x="424.560546875" xlink:href="#BitstreamVeraSans-Roman-5f"/>
      <use x="474.560546875" xlink:href="#BitstreamVeraSans-Roman-61"/>
      <use x="535.83984375" xlink:href="#BitstreamVeraSans-Roman-6c"/>
      <use x="563.623046875" xlink:href="#BitstreamVeraSans-Roman-6c"/>
      <use x="591.40625" xlink:href="#BitstreamVeraSans-Roman-5f"/>
      <use x="641.40625" xlink:href="#BitstreamVeraSans-Roman-5f"/>
      <use x="691.40625" xlink:href="#BitstreamVeraSans-Roman-69"/>
      <use x="719.189453125" xlink:href="#BitstreamVeraSans-Roman-73"/>
      <use x="771.2890625" xlink:href="#BitstreamVeraSans-Roman-73"/>
      <use x="823.388671875" xlink:href="#BitstreamVeraSans-Roman-75"/>
      <use x="886.767578125" xlink:href="#BitstreamVeraSans-Roman-65"/>
      <use x="948.291015625" xlink:href="#BitstreamVeraSans-Roman-5f"/>
      <use x="998.291015625" xlink:href="#BitstreamVeraSans-Roman-5f"/>
      <use x="1048.29101562" xlink:href="#BitstreamVeraSans-Roman-64"/>
      <use x="1111.76757812" xlink:href="#BitstreamVeraSans-Roman-6f"/>
      <use x="1172.94921875" xlink:href="#BitstreamVeraSans-Roman-63"/>
      <use x="1227.9296875" xlink:href="#BitstreamVeraSans-Roman-73"/>
      <use x="1280.02929688" xlink:href="#BitstreamVeraSans-Roman-5f"/>
      <use x="1330.02929688" xlink:href="#BitstreamVeraSans-Roman-72"/>
      <use x="1371.11132812" xlink:href="#BitstreamVeraSans-Roman-65"/>
      <use x="1432.63476562" xlink:href="#BitstreamVeraSans-Roman-70"/>
      <use x="1496.11132812" xlink:href="#BitstreamVeraSans-Roman-6f"/>
      <use x="1557.29296875" xlink:href="#BitstreamVeraSans-Roman-72"/>
      <use x="1598.40625" xlink:href="#BitstreamVeraSans-Roman-74"/>
     </g>
    </g>
    <g id="line2d_50">
     <path d="M 709.931875 110.649875 
L 726.731875 110.649875 
" style="fill:none;stroke:#fbc15e;stroke-linecap:square;"/>
    </g>
    <g id="line2d_51"/>
    <g id="text_19">
     <!-- closed__all__issue__all -->
     <g transform="translate(739.931875 114.849875)scale(0.12 -0.12)">
      <use xlink:href="#BitstreamVeraSans-Roman-63"/>
      <use x="54.98046875" xlink:href="#BitstreamVeraSans-Roman-6c"/>
      <use x="82.763671875" xlink:href="#BitstreamVeraSans-Roman-6f"/>
      <use x="143.9453125" xlink:href="#BitstreamVeraSans-Roman-73"/>
      <use x="196.044921875" xlink:href="#BitstreamVeraSans-Roman-65"/>
      <use x="257.568359375" xlink:href="#BitstreamVeraSans-Roman-64"/>
      <use x="321.044921875" xlink:href="#BitstreamVeraSans-Roman-5f"/>
      <use x="371.044921875" xlink:href="#BitstreamVeraSans-Roman-5f"/>
      <use x="421.044921875" xlink:href="#BitstreamVeraSans-Roman-61"/>
      <use x="482.32421875" xlink:href="#BitstreamVeraSans-Roman-6c"/>
      <use x="510.107421875" xlink:href="#BitstreamVeraSans-Roman-6c"/>
      <use x="537.890625" xlink:href="#BitstreamVeraSans-Roman-5f"/>
      <use x="587.890625" xlink:href="#BitstreamVeraSans-Roman-5f"/>
      <use x="637.890625" xlink:href="#BitstreamVeraSans-Roman-69"/>
      <use x="665.673828125" xlink:href="#BitstreamVeraSans-Roman-73"/>
      <use x="717.7734375" xlink:href="#BitstreamVeraSans-Roman-73"/>
      <use x="769.873046875" xlink:href="#BitstreamVeraSans-Roman-75"/>
      <use x="833.251953125" xlink:href="#BitstreamVeraSans-Roman-65"/>
      <use x="894.775390625" xlink:href="#BitstreamVeraSans-Roman-5f"/>
      <use x="944.775390625" xlink:href="#BitstreamVeraSans-Roman-5f"/>
      <use x="994.775390625" xlink:href="#BitstreamVeraSans-Roman-61"/>
      <use x="1056.0546875" xlink:href="#BitstreamVeraSans-Roman-6c"/>
      <use x="1083.83789062" xlink:href="#BitstreamVeraSans-Roman-6c"/>
     </g>
    </g>
    <g id="line2d_52">
     <path d="M 709.931875 128.597375 
L 726.731875 128.597375 
" style="fill:none;stroke:#8eba42;stroke-linecap:square;"/>
    </g>
    <g id="line2d_53"/>
    <g id="text_20">
     <!-- closed__all__issue__bug_report -->
     <g transform="translate(739.931875 132.797375)scale(0.12 -0.12)">
      <use xlink:href="#BitstreamVeraSans-Roman-63"/>
      <use x="54.98046875" xlink:href="#BitstreamVeraSans-Roman-6c"/>
      <use x="82.763671875" xlink:href="#BitstreamVeraSans-Roman-6f"/>
      <use x="143.9453125" xlink:href="#BitstreamVeraSans-Roman-73"/>
      <use x="196.044921875" xlink:href="#BitstreamVeraSans-Roman-65"/>
      <use x="257.568359375" xlink:href="#BitstreamVeraSans-Roman-64"/>
      <use x="321.044921875" xlink:href="#BitstreamVeraSans-Roman-5f"/>
      <use x="371.044921875" xlink:href="#BitstreamVeraSans-Roman-5f"/>
      <use x="421.044921875" xlink:href="#BitstreamVeraSans-Roman-61"/>
      <use x="482.32421875" xlink:href="#BitstreamVeraSans-Roman-6c"/>
      <use x="510.107421875" xlink:href="#BitstreamVeraSans-Roman-6c"/>
      <use x="537.890625" xlink:href="#BitstreamVeraSans-Roman-5f"/>
      <use x="587.890625" xlink:href="#BitstreamVeraSans-Roman-5f"/>
      <use x="637.890625" xlink:href="#BitstreamVeraSans-Roman-69"/>
      <use x="665.673828125" xlink:href="#BitstreamVeraSans-Roman-73"/>
      <use x="717.7734375" xlink:href="#BitstreamVeraSans-Roman-73"/>
      <use x="769.873046875" xlink:href="#BitstreamVeraSans-Roman-75"/>
      <use x="833.251953125" xlink:href="#BitstreamVeraSans-Roman-65"/>
      <use x="894.775390625" xlink:href="#BitstreamVeraSans-Roman-5f"/>
      <use x="944.775390625" xlink:href="#BitstreamVeraSans-Roman-5f"/>
      <use x="994.775390625" xlink:href="#BitstreamVeraSans-Roman-62"/>
      <use x="1058.25195312" xlink:href="#BitstreamVeraSans-Roman-75"/>
      <use x="1121.63085938" xlink:href="#BitstreamVeraSans-Roman-67"/>
      <use x="1185.10742188" xlink:href="#BitstreamVeraSans-Roman-5f"/>
      <use x="1235.10742188" xlink:href="#BitstreamVeraSans-Roman-72"/>
      <use x="1276.18945312" xlink:href="#BitstreamVeraSans-Roman-65"/>
      <use x="1337.71289062" xlink:href="#BitstreamVeraSans-Roman-70"/>
      <use x="1401.18945312" xlink:href="#BitstreamVeraSans-Roman-6f"/>
      <use x="1462.37109375" xlink:href="#BitstreamVeraSans-Roman-72"/>
      <use x="1503.484375" xlink:href="#BitstreamVeraSans-Roman-74"/>
     </g>
    </g>
    <g id="line2d_54">
     <path d="M 709.931875 146.544875 
L 726.731875 146.544875 
" style="fill:none;stroke:#ffb5b8;stroke-linecap:square;"/>
    </g>
    <g id="line2d_55"/>
    <g id="text_21">
     <!-- closed__all__issue__feature_idea -->
     <g transform="translate(739.931875 150.744875)scale(0.12 -0.12)">
      <use xlink:href="#BitstreamVeraSans-Roman-63"/>
      <use x="54.98046875" xlink:href="#BitstreamVeraSans-Roman-6c"/>
      <use x="82.763671875" xlink:href="#BitstreamVeraSans-Roman-6f"/>
      <use x="143.9453125" xlink:href="#BitstreamVeraSans-Roman-73"/>
      <use x="196.044921875" xlink:href="#BitstreamVeraSans-Roman-65"/>
      <use x="257.568359375" xlink:href="#BitstreamVeraSans-Roman-64"/>
      <use x="321.044921875" xlink:href="#BitstreamVeraSans-Roman-5f"/>
      <use x="371.044921875" xlink:href="#BitstreamVeraSans-Roman-5f"/>
      <use x="421.044921875" xlink:href="#BitstreamVeraSans-Roman-61"/>
      <use x="482.32421875" xlink:href="#BitstreamVeraSans-Roman-6c"/>
      <use x="510.107421875" xlink:href="#BitstreamVeraSans-Roman-6c"/>
      <use x="537.890625" xlink:href="#BitstreamVeraSans-Roman-5f"/>
      <use x="587.890625" xlink:href="#BitstreamVeraSans-Roman-5f"/>
      <use x="637.890625" xlink:href="#BitstreamVeraSans-Roman-69"/>
      <use x="665.673828125" xlink:href="#BitstreamVeraSans-Roman-73"/>
      <use x="717.7734375" xlink:href="#BitstreamVeraSans-Roman-73"/>
      <use x="769.873046875" xlink:href="#BitstreamVeraSans-Roman-75"/>
      <use x="833.251953125" xlink:href="#BitstreamVeraSans-Roman-65"/>
      <use x="894.775390625" xlink:href="#BitstreamVeraSans-Roman-5f"/>
      <use x="944.775390625" xlink:href="#BitstreamVeraSans-Roman-5f"/>
      <use x="994.775390625" xlink:href="#BitstreamVeraSans-Roman-66"/>
      <use x="1029.98046875" xlink:href="#BitstreamVeraSans-Roman-65"/>
      <use x="1091.50390625" xlink:href="#BitstreamVeraSans-Roman-61"/>
      <use x="1152.78320312" xlink:href="#BitstreamVeraSans-Roman-74"/>
      <use x="1191.9921875" xlink:href="#BitstreamVeraSans-Roman-75"/>
      <use x="1255.37109375" xlink:href="#BitstreamVeraSans-Roman-72"/>
      <use x="1296.453125" xlink:href="#BitstreamVeraSans-Roman-65"/>
      <use x="1357.9765625" xlink:href="#BitstreamVeraSans-Roman-5f"/>
      <use x="1407.9765625" xlink:href="#BitstreamVeraSans-Roman-69"/>
      <use x="1435.75976562" xlink:href="#BitstreamVeraSans-Roman-64"/>
      <use x="1499.23632812" xlink:href="#BitstreamVeraSans-Roman-65"/>
      <use x="1560.75976562" xlink:href="#BitstreamVeraSans-Roman-61"/>
     </g>
    </g>
    <g id="line2d_56">
     <path d="M 709.931875 164.492375 
L 726.731875 164.492375 
" style="fill:none;stroke:#e24a33;stroke-linecap:square;"/>
    </g>
    <g id="line2d_57"/>
    <g id="text_22">
     <!-- closed__all__issue__docs_report -->
     <g transform="translate(739.931875 168.692375)scale(0.12 -0.12)">
      <use xlink:href="#BitstreamVeraSans-Roman-63"/>
      <use x="54.98046875" xlink:href="#BitstreamVeraSans-Roman-6c"/>
      <use x="82.763671875" xlink:href="#BitstreamVeraSans-Roman-6f"/>
      <use x="143.9453125" xlink:href="#BitstreamVeraSans-Roman-73"/>
      <use x="196.044921875" xlink:href="#BitstreamVeraSans-Roman-65"/>
      <use x="257.568359375" xlink:href="#BitstreamVeraSans-Roman-64"/>
      <use x="321.044921875" xlink:href="#BitstreamVeraSans-Roman-5f"/>
      <use x="371.044921875" xlink:href="#BitstreamVeraSans-Roman-5f"/>
      <use x="421.044921875" xlink:href="#BitstreamVeraSans-Roman-61"/>
      <use x="482.32421875" xlink:href="#BitstreamVeraSans-Roman-6c"/>
      <use x="510.107421875" xlink:href="#BitstreamVeraSans-Roman-6c"/>
      <use x="537.890625" xlink:href="#BitstreamVeraSans-Roman-5f"/>
      <use x="587.890625" xlink:href="#BitstreamVeraSans-Roman-5f"/>
      <use x="637.890625" xlink:href="#BitstreamVeraSans-Roman-69"/>
      <use x="665.673828125" xlink:href="#BitstreamVeraSans-Roman-73"/>
      <use x="717.7734375" xlink:href="#BitstreamVeraSans-Roman-73"/>
      <use x="769.873046875" xlink:href="#BitstreamVeraSans-Roman-75"/>
      <use x="833.251953125" xlink:href="#BitstreamVeraSans-Roman-65"/>
      <use x="894.775390625" xlink:href="#BitstreamVeraSans-Roman-5f"/>
      <use x="944.775390625" xlink:href="#BitstreamVeraSans-Roman-5f"/>
      <use x="994.775390625" xlink:href="#BitstreamVeraSans-Roman-64"/>
      <use x="1058.25195312" xlink:href="#BitstreamVeraSans-Roman-6f"/>
      <use x="1119.43359375" xlink:href="#BitstreamVeraSans-Roman-63"/>
      <use x="1174.4140625" xlink:href="#BitstreamVeraSans-Roman-73"/>
      <use x="1226.51367188" xlink:href="#BitstreamVeraSans-Roman-5f"/>
      <use x="1276.51367188" xlink:href="#BitstreamVeraSans-Roman-72"/>
      <use x="1317.59570312" xlink:href="#BitstreamVeraSans-Roman-65"/>
      <use x="1379.11914062" xlink:href="#BitstreamVeraSans-Roman-70"/>
      <use x="1442.59570312" xlink:href="#BitstreamVeraSans-Roman-6f"/>
      <use x="1503.77734375" xlink:href="#BitstreamVeraSans-Roman-72"/>
      <use x="1544.890625" xlink:href="#BitstreamVeraSans-Roman-74"/>
     </g>
    </g>
   </g>
  </g>
 </g>
 <defs>
  <clipPath id="p1db0f1733e">
   <rect height="604.8" width="920.7" x="31.103125" y="23.14175"/>
  </clipPath>
 </defs>
</svg>
